<svg
   width="151.1709mm"
   height="34.806469mm"
   viewBox="0 0 151.1709 34.806469"
   version="1.1"
   id="svg5"
   xml:space="preserve"
   xmlns="http://www.w3.org/2000/svg"
   xmlns:svg="http://www.w3.org/2000/svg">
  <defs
     id="defs2" />
  <g
     id="layer1"
     transform="translate(-28.256832,-83.097666)">
    <path
       style="fill:none;stroke:#ffffff;stroke-width:0.576;stroke-dasharray:none;stroke-opacity:1"
       d="m 150.63328,83.45144 c 0.59671,-0.0784 2.1844,-0.0838 2.80537,-0.0105 0.26386,0.0311 0.47312,0.0537 0.75821,0.0542 0.20472,3.2e-4 0.32982,-0.002 0.53075,2.9e-4 0.24338,0.003 0.54136,0.0398 0.7582,0.0732 0.28509,0.0439 0.38972,0.0838 0.6695,0.33927 0.25552,0.23307 0.60051,0.67917 0.85375,0.95203 1.05467,1.13825 2.00698,2.24362 2.99416,3.41194 0.48905,0.57902 1.085,1.31687 1.56722,1.89552 0.31618,0.38 0.59975,0.74767 0.90682,1.13732 0.44128,0.56077 0.82872,1.04003 1.24498,1.59224 0.80825,1.07377 1.79544,2.27697 2.68709,3.2603 0.25324,0.27841 0.41778,0.46728 0.65813,0.7582 0.34574,0.41846 0.62173,0.73592 0.93184,1.13732 0.27295,0.35401 0.29039,0.52551 0.32754,0.68231 0.01,0.0429 0.0591,0.14194 0.008,0.29244 -0.0766,0.2214 -0.42308,0.28471 -0.56562,0.30101 -0.47767,0.0544 -0.79612,-0.0178 -1.36478,0.0569 -0.4064,0.0534 -0.56486,0.0321 -1.06149,0.0321 h -0.83403 c -0.50269,0 -1.04178,0.0187 -1.51642,-0.003 -0.28736,-0.0132 -0.45644,-0.0435 -0.68238,-0.16984 -0.20775,-0.11593 -0.41474,-0.3258 -0.57397,-0.5099 -0.43673,-0.50307 -0.90833,-1.14413 -1.28971,-1.66775 -0.1289,-0.17758 -0.24187,-0.35659 -0.41777,-0.50967 -0.2631,-0.22807 -0.49208,-0.30131 -0.90303,-0.32133 -0.66419,-0.0323 -1.5566,-0.0437 -2.19881,0.0406 -0.32224,0.0423 -0.48601,0.0322 -0.83403,0.0322 h -5.4591 c -1.29047,0 -2.58246,0.0696 -3.86687,0.0757 -0.62476,0.003 -1.44666,-0.11115 -2.04716,0.0358 -0.39124,0.0958 -0.52696,0.2286 -0.7802,0.49837 -0.20472,0.21844 -0.40716,0.43491 -0.61642,0.67905 -0.56411,0.65843 -1.13201,1.79658 -1.9395,1.88726 -0.30404,0.0341 -0.73092,0.008 -1.0615,0.008 -0.81507,0 -1.94935,0.004 -2.72955,-7e-5 -0.24035,-10e-4 -0.37607,-0.0133 -0.60656,-0.0436 -0.23429,-0.0307 -0.54137,-0.016 -0.75821,-0.0404 -0.26234,-0.0295 -0.34954,-0.0473 -0.43976,-0.23649 -0.069,-0.14451 0.11828,-0.6165 0.26158,-0.81674 0.4716,-0.66032 1.35643,-1.56813 1.90993,-2.1988 2.17757,-2.47798 4.42339,-5.16212 6.56381,-7.73374 0.97582,-1.17176 2.07219,-2.4095 3.04421,-3.56358 0.27447,-0.32602 0.4572,-0.56867 0.75973,-0.90845 0.37531,-0.421 0.45037,-0.43224 0.86587,-0.45328 0.54515,-0.0276 1.00008,0.0112 1.4406,-0.0467 m -68.011355,0.09977 c 0.40208,-0.1536 1.27812,-0.0563 1.74389,-0.0563 1.48707,0 2.98772,-0.003 4.47343,0 0.45227,9.3e-4 0.59656,0.0204 0.90977,0.30772 0.34279,0.31444 0.92744,1.0125 1.22284,1.36034 0.17045,0.20077 0.291,0.3819 0.47373,0.60656 0.21253,0.26124 0.40655,0.42273 0.64107,0.68239 1.63811,1.8137 3.19555,3.76988 4.72895,5.68657 0.61111,0.76382 1.16263,1.45485 1.77239,2.1988 0.87125,1.06301 2.208285,2.51377 3.028965,3.56359 0.2813,0.35984 0.50686,1.02684 0.30814,1.27773 -0.15073,0.19023 -0.28577,0.23558 -0.72705,0.23861 -0.32065,0.002 -0.86451,7e-5 -1.213135,7e-5 h -2.65373 c -0.44484,0 -0.85109,0.10699 -1.21314,-0.12154 -0.92228,-0.58223 -1.49443,-1.90007 -2.27576,-2.59792 -0.23012,-0.20555 -0.39707,-0.31292 -0.75707,-0.40519 -0.45273,-0.11593 -0.67359,0.0159 -1.06149,0.016 -0.55266,2.2e-4 -1.32391,-0.0607 -1.89553,-0.0747 -2.98393,-0.0732 -5.96778,0.1361 -8.94686,0.15043 -0.52711,0.003 -1.23755,8e-5 -1.74388,8e-5 -0.307,0 -0.482,-0.0287 -0.83403,0.0139 -0.47752,0.058 -0.57207,0.11282 -0.82107,0.3211 -0.18424,0.15407 -0.39851,0.45675 -0.54401,0.65062 -0.37077,0.49405 -1.23475,1.50694 -1.67072,1.86944 -0.2032,0.16893 -0.32064,0.22814 -0.60361,0.24937 -0.1853,0.014 -0.86178,0.004 -1.13731,0.004 h -2.88119 c -0.45205,0 -0.9044,-0.0278 -1.21162,-0.0859 -0.0917,-0.0174 -0.26242,-0.0375 -0.31208,-0.2286 -0.0571,-0.21996 0.11752,-0.52271 0.2866,-0.74699 0.42809,-0.56797 1.05497,-1.26803 1.55327,-1.8197 0.20585,-0.22799 0.35332,-0.36682 0.56153,-0.60657 0.88271,-1.01668 1.97551,-2.35082 2.91713,-3.41194 0.59724,-0.67306 1.18167,-1.36781 1.76071,-2.04716 0.33551,-0.39365 0.62333,-0.80415 0.9505,-1.21314 0.86344,-1.07937 1.76253,-2.02301 2.64668,-3.03283 0.51876,-0.59244 1.13177,-1.34731 1.65858,-1.97134 0.31966,-0.37863 0.47251,-0.62779 0.86511,-0.77775 m 25.627465,0.20335 c 1.39966,-0.18378 2.91001,-0.0322 4.3218,-0.0322 2.80689,0 5.61453,0.006 8.41612,0.0747 1.79164,0.0439 3.67503,0.001 5.4591,0.001 0.38972,0 0.58761,-0.0259 0.98567,0.0217 0.57169,0.0684 0.99477,0.1464 1.51642,0.30287 0.60202,0.18064 1.21313,0.5622 1.74388,0.98041 0.30783,0.24229 0.49966,0.39326 0.74532,0.6667 0.35257,0.39316 0.63841,0.91447 0.90227,1.44031 0.26158,0.52116 0.3374,1.01786 0.323,1.59224 -0.007,0.24119 -0.0554,0.44634 -0.11904,0.68239 -0.0978,0.36451 -0.15619,0.75411 -0.32452,1.13731 -0.14709,0.33376 -0.30176,0.61711 -0.51406,0.90985 -0.52696,0.72477 -1.17978,1.18273 -1.92282,1.65752 -0.44279,0.28289 -0.66874,0.3233 -0.78171,0.69407 -0.0614,0.20206 0.0303,0.4735 0.10615,0.68125 0.22139,0.60179 0.87952,1.32876 1.25711,1.89552 0.38138,0.57305 0.88179,1.44795 1.22829,1.97134 0.10464,0.15794 0.31163,0.58784 0.26007,0.74995 -0.0766,0.24156 -0.20092,0.25096 -0.40185,0.29721 -0.82645,0.19024 -2.35272,0.0902 -3.41194,0.0902 -0.44204,0 -0.9326,-0.003 -1.36478,-0.0542 -0.36697,-0.0439 -0.52771,0.0224 -0.82644,-0.17393 -0.24566,-0.1618 -0.36849,-0.42983 -0.54061,-0.6817 -0.6604,-0.96816 -1.35188,-1.94261 -2.05474,-2.8812 -0.29191,-0.39033 -0.77262,-1.04519 -1.12822,-1.35355 -0.43294,-0.37433 -0.94852,-0.23869 -1.59148,-0.23869 h -1.13731 c -1.778,0 -3.6068,0.0751 -5.38329,0.0758 -0.52165,2.3e-4 -1.34203,0.0363 -1.8197,0.069 -0.21988,0.0151 -0.65358,-0.0419 -0.89241,0.1389 -0.23884,0.18069 -0.23353,0.30192 -0.24339,0.62613 -0.0136,0.42172 -0.002,1.89469 -0.002,2.35045 v 0.68239 c 0,0.35052 0.0811,0.81469 -0.14103,1.12003 -0.15619,0.21434 -0.33664,0.2286 -0.54136,0.24141 -0.23656,0.0149 -0.58003,0.003 -0.83403,0.003 -0.82114,0 -1.76966,10e-4 -2.57791,0 -0.36015,-6e-4 -1.17068,-0.006 -1.41634,-0.2079 -0.18879,-0.15452 -0.25172,-1.00508 -0.25172,-1.38433 0,-1.30397 -0.005,-2.72743 -0.022,-4.01851 -0.005,-0.36 0.022,-0.54121 0.022,-0.90985 v -2.12299 -0.90985 c 0,-1.07773 -0.10388,-2.35101 0.022,-3.41194 0.0387,-0.32877 0.0538,-0.50621 0.0538,-0.83403 0,-0.18047 -0.005,-1.12695 0.0129,-1.28895 0.0197,-0.17272 0.0228,-0.38965 0.23732,-0.52864 0.17666,-0.11386 0.45644,-0.0778 0.65964,-0.0779 0.63917,-2.9e-4 1.33293,0.0401 1.97134,-0.0436 m 43.82752,3.7336 c 0.31086,-0.0656 0.62097,0.22136 0.85222,0.48055 0.69073,0.77332 1.6946,1.85051 2.32012,2.65338 0.26386,0.33877 0.34044,0.56941 0.39655,0.75821 0.0205,0.0705 0.0933,0.18576 0.0584,0.36902 -0.0409,0.21616 -0.35105,0.296 -0.44583,0.32065 -1.0069,0.26211 -2.51801,0.14436 -4.01851,0.14436 -0.52316,0 -1.24194,8.3e-4 -1.74388,0 -0.47539,-7.6e-4 -0.74228,0.0856 -0.84161,-0.31155 -0.0356,-0.14467 0.047,-0.36682 0.0804,-0.44666 0.10312,-0.24763 0.35788,-0.56525 0.57776,-0.83403 0.61642,-0.75359 1.28365,-1.52405 1.92736,-2.27463 0.34954,-0.40753 0.3829,-0.76323 0.83707,-0.8593 m -66.194685,0.10882 c 0.40451,-0.0225 0.74183,0.33683 1.04861,0.67472 0.61854,0.68121 1.41952,1.63908 2.0276,2.35039 0.25324,0.29631 0.49117,0.57374 0.59216,0.83403 0.0279,0.0719 0.0872,0.23732 0.0541,0.37463 -0.0811,0.33665 -0.33073,0.30207 -0.61385,0.30738 -0.33702,0.006 -1.04867,0.026 -1.44059,0.0633 -1.01941,0.097 -2.08462,0.0129 -3.10866,0.0129 -0.39154,0 -1.00076,0.002 -1.36478,-8e-5 -0.41997,-0.003 -0.54507,0.0309 -0.66631,-0.23861 -0.0684,-0.15209 -0.007,-0.30593 0.009,-0.36788 0.0655,-0.24642 0.20274,-0.48411 0.48025,-0.83403 0.61248,-0.77237 1.39624,-1.57139 2.00554,-2.35045 0.27629,-0.35335 0.5848,-0.80448 0.9768,-0.8263 m 26.309855,-0.0514 c 2.94413,-0.39131 6.14074,0.0436 9.09851,0.0436 h 0.90985 c 0.62401,0 1.40875,0.0506 2.04716,0.0788 0.577,0.0255 1.41331,0.0567 1.8887,0.38624 0.27675,0.19218 0.43749,0.49468 0.42536,0.82391 -0.0159,0.43724 -0.29949,0.78964 -0.64675,0.9948 -0.67178,0.3966 -1.23058,0.38261 -1.89477,0.47768 -0.45113,0.0647 -1.10698,0.0439 -1.59224,0.0439 -2.60065,1.6e-4 -5.20283,0.15164 -7.80955,0.15164 -0.97354,0 -2.33453,0.25309 -3.25727,-0.12128 -0.48752,-0.19812 -0.38213,-0.65149 -0.38213,-1.09186 0,-0.56115 -0.1433,-0.9333 0.0895,-1.36038 0.19486,-0.35805 0.73697,-0.37572 1.12366,-0.42714 m -61.187452,8.00102 c 0.206536,0.017 0.73478,0.004 0.985671,0.004 0.887712,0 1.770873,0.065 2.653732,0.0755 2.602325,0.0309 5.207,3e-4 7.809554,3e-4 0.55728,0 1.19516,-9.1e-4 1.74388,0 0.24452,4e-4 0.44211,0.0122 0.68239,0.0437 0.19895,0.0261 0.33232,0.03119 0.53074,0.0321 0.44136,0.0021 0.92616,-0.14352 1.08242,0.38063 0.0847,0.28394 0.0319,0.49169 6.8e-4,0.75676 -0.0446,0.37949 -0.0197,0.84912 -0.0217,1.21314 -0.002,0.50049 -0.0235,0.6999 -0.18507,0.9812 -0.20465,0.35627 -0.937,0.38297 -1.33127,0.38357 -0.40632,7e-4 -0.87967,-0.0266 -1.28895,0.0216 -0.27258,0.0322 -0.41596,0.0531 -0.68239,0.0541 -0.71727,0.0031 -1.75366,7e-5 -2.502091,7e-5 -0.845403,0 -1.8219,0.001 -2.653731,0 -0.360908,-6e-4 -0.527562,-0.0428 -0.909851,-0.069 -1.537875,-0.1055 -3.15559,-0.007 -4.700896,-0.007 -2.654869,0 -5.323688,-0.0758 -7.961194,-0.0758 -1.255898,0 -2.712872,0.0156 -3.942687,-0.069 -0.331489,-0.0229 -0.777771,0.03374 -0.929413,-0.31838 -0.211465,-0.49116 -0.05725,-1.03753 -0.05626,-1.65979 5.3e-4,-0.33945 -0.01167,-0.72834 0.03215,-1.06149 0.02267,-0.17212 0.02373,-0.34264 0.06073,-0.53045 0.04451,-0.22625 0.133596,-0.34256 0.294488,-0.45568 0.210934,-0.14838 0.57404,-0.27076 0.825766,-0.37873 0.844948,-0.36234 1.662449,-0.80301 2.502089,-1.16938 1.90538,-0.83138 3.818189,-1.80461 5.686568,-2.71598 0.291607,-0.14224 0.541968,-0.22322 0.83403,-0.35113 0.281068,-0.12305 0.487983,-0.26216 0.758209,-0.3864 0.783533,-0.36018 2.21071,-0.93905 2.957015,-1.30984 0.856473,-0.42553 1.897351,-0.992662 2.119809,-1.292642 -0.421261,-0.0268 -1.251489,-0.0011 -1.436871,-0.03553 -0.121314,-0.0225 -0.846313,-0.0923 -1.137314,-0.0928 -0.977331,-0.002 -2.118056,-0.0758 -3.108656,-0.0758 -2.227467,0 -4.443712,-0.0758 -6.67224,-0.0758 h -1.516418 c -0.219577,0 -0.386156,0.004 -0.606567,-0.001 -0.201077,-0.005 -0.349004,-0.0316 -0.530746,-0.0531 -0.258549,-0.0305 -0.521117,0.0181 -0.753736,-0.0457 -0.379332,-0.10417 -0.307757,-0.48035 -0.307757,-0.88575 -7.6e-5,-0.81882 -0.131322,-1.73418 0.0988,-2.49765 0.151338,-0.5019 0.974981,-0.30772 1.417623,-0.30772 h 4.549254 16.149847 3.03284 c 0.2703,0 0.89999,-0.0116 1.13724,0.003 0.14512,0.009 0.28031,0.0126 0.42513,0.12877 0.18743,0.1504 0.22928,0.34967 0.24937,0.55028 0.043,0.42969 0.0362,1.92001 9.1e-4,2.35045 -0.0208,0.25355 -0.10145,0.52514 -0.26962,0.75681 -0.3095,0.42632 -0.47964,0.44869 -1.0881,0.68672 -2.22618,0.87088 -4.421499,2.07115 -6.596422,3.04044 -1.358711,0.60551 -2.794683,1.445 -4.17015,2.00228 -0.59944,0.24286 -1.147018,0.45371 -1.74388,0.73327 -0.39624,0.18568 -0.752902,0.28523 -1.137314,0.50458 -0.458565,0.26159 -1.534279,0.908179 -2.009828,1.151489 0.113655,0.09615 1.199676,0.03028 1.630187,0.06678 z m -8.795225,22.06837 c -0.912125,-0.001 -2.083482,-0.1104 -2.957015,-0.14869 -0.271439,-0.0118 -0.419744,0.008 -0.682388,-0.01 -0.844872,-0.0579 -1.554707,-0.14011 -2.350448,-0.26537 -1.460947,-0.22996 -2.749394,-0.44022 -4.170149,-0.63765 -0.650445,-0.0904 -1.201595,-0.25514 -1.819702,-0.43286 -0.198431,-0.057 -0.431792,-0.10646 -0.606506,-0.19668 -0.339208,-0.17515 -0.641839,-0.38707 -0.482426,-0.9627 0.191167,-0.69028 0.472668,-0.95269 0.96865,-1.66806 0.202487,-0.29206 0.416264,-0.77739 0.803785,-0.92941 0.227061,-0.089 0.32675,-0.0685 0.605453,-0.0494 0.308234,0.0211 0.676307,0.12048 0.985671,0.18849 1.110928,0.24399 2.213174,0.49314 3.33612,0.68156 0.488969,0.082 1.123362,0.1486 1.592239,0.20623 0.356585,0.0438 0.582607,0.0788 0.985671,0.11714 0.32876,0.0313 0.646222,-0.006 0.985672,0.0345 0.325499,0.0384 0.482524,0.0541 0.83403,0.0542 0.564411,2.3e-4 0.729473,0 1.213134,0 0.687772,0 1.572678,0.0287 2.274627,-0.0542 1.021839,-0.12056 2.100998,-0.0804 3.108657,-0.28312 0.610889,-0.1229 1.073169,-0.2521 1.66806,-0.52035 0.492912,-0.22224 1.058612,-0.48935 1.02108,-1.0367 -0.01751,-0.25484 -0.175525,-0.37251 -0.342862,-0.47123 -0.225491,-0.13299 -0.616348,-0.254 -0.905681,-0.28236 -1.23171,-0.12093 -2.684893,-0.20312 -3.866865,-0.23208 -0.361363,-0.009 -0.935706,5.3e-4 -1.288956,-0.001 -0.381379,-0.002 -0.520662,-0.0632 -0.985671,-0.0746 -0.309122,-0.008 -0.466072,-10e-4 -0.758209,-10e-4 -0.340664,-1.5e-4 -0.601715,-0.0428 -0.985672,-0.069 -1.732432,-0.11866 -3.498377,-0.11396 -5.231642,-0.23239 -0.533188,-0.0365 -0.845274,-0.10888 -1.364777,-0.17515 -0.750467,-0.0958 -1.405946,-0.24816 -2.122985,-0.48419 -1.065276,-0.3506 -2.112726,-0.99098 -2.689481,-1.99629 -0.253257,-0.44143 -0.358984,-0.99462 -0.414729,-1.4406 -0.09469,-0.75752 0.118616,-1.52362 0.700756,-2.1985 0.982851,-1.13951 2.883173,-2.14687 4.298977,-2.49253 1.390919,-0.33961 2.931236,-0.5422 4.397612,-0.73592 0.514142,-0.0679 0.827433,-0.10463 1.288955,-0.16211 0.288044,-0.0358 0.626508,-0.0713 0.909851,-0.0907 0.289105,-0.0199 0.431421,-0.007 0.758209,-0.007 0.671243,0 0.872395,0.006 1.440597,-0.0539 0.270832,-0.0287 0.567975,0.0381 0.83403,0.051 0.195997,0.01 0.317993,0.007 0.530746,0.0351 1.013574,0.13314 2.084696,0.18538 3.108657,0.35302 2.082725,0.34096 4.151498,0.54629 6.217314,1.01183 0.688226,0.15513 1.358256,0.41489 1.298206,0.8777 -0.04936,0.38039 -0.657898,1.38411 -0.951022,1.89545 -0.212223,0.37008 -0.377133,0.86473 -0.803247,1.01463 -0.383198,0.13481 -0.901738,-0.18242 -1.287818,-0.30616 -0.962698,-0.30844 -1.947611,-0.49405 -2.957015,-0.63265 -0.55099,-0.0757 -1.29775,-0.12594 -1.819701,-0.19532 -0.259914,-0.0345 -0.403595,-0.0378 -0.682388,-0.0758 -0.445069,-0.0608 -0.919708,-0.10797 -1.364777,-0.10797 h -0.606567 -1.288955 c -0.536736,0 -1.547201,-0.0375 -2.047164,0.0216 -0.27887,0.0331 -0.452879,0.0455 -0.758209,0.10092 -0.467967,0.0849 -0.960803,0.24536 -1.440598,0.32626 -0.931308,0.15695 -2.021157,0.25604 -2.881194,0.51573 -0.335136,0.10122 -0.692639,0.23755 -0.780326,0.55304 -0.118584,0.42672 0.173585,0.62067 0.628745,0.71006 0.206968,0.0407 0.339177,0.0435 0.530686,0.0684 0.199864,0.0259 0.328987,0.0484 0.530746,0.0533 0.259459,0.006 0.399728,10e-4 0.682388,10e-4 0.996059,0 2.106153,0.0762 3.108657,0.14482 0.538101,0.0369 1.106834,-0.0265 1.592239,0.0197 0.50292,0.0479 0.949733,0.0629 1.516418,0.0629 0.321936,0 0.50019,-0.0177 0.83403,0.0216 0.364623,0.0431 0.536054,0.0542 0.909851,0.0542 0.391236,0 0.56297,-0.0133 0.90985,0.0322 0.305255,0.0401 0.444008,0.0434 0.758209,0.0437 0.271591,2.2e-4 0.421792,-0.002 0.682389,0.0321 0.206763,0.0272 0.314505,0.0407 0.530746,0.0434 0.201608,0.003 0.338161,-0.005 0.530746,0.0132 0.721512,0.0686 1.517404,0.13397 2.274627,0.23595 0.7112,0.0958 1.456141,0.22352 2.122985,0.4666 0.397833,0.14497 0.787097,0.32853 1.137314,0.56707 0.666693,0.45401 1.149596,1.28842 1.314052,2.05361 0.08712,0.40511 0.147396,0.77799 0.119721,1.21313 -0.03291,0.51611 -0.08075,0.98628 -0.321253,1.4406 -0.221549,0.41838 -0.419669,0.65744 -0.81606,1.01676 -0.477065,0.43248 -0.811284,0.73781 -1.433774,1.09333 -0.63826,0.36463 -1.415197,0.72743 -2.122985,0.99364 -0.273789,0.10296 -0.489348,0.1502 -0.758209,0.24967 -0.284404,0.10524 -0.547806,0.21496 -0.83403,0.31125 -0.589356,0.19812 -1.198576,0.35037 -1.819701,0.41709 -0.37031,0.0398 -0.509744,0.0546 -0.83403,0.10706 -0.310942,0.0503 -0.677687,0.0407 -0.985672,0.0701 -0.319282,0.0304 -0.660021,-0.0135 -1.061492,0.087 -0.446553,0.0394 -0.536943,0.0335 -0.720601,0.0397 -0.502603,0.0218 -0.967812,0.0118 -1.478206,0.0121 z m 60.429267,-16.62686 c 0.2775,-0.004 0.4826,0.0215 0.75821,0.022 0.79308,10e-4 2.41944,-0.06 3.18447,0.0129 0.36546,0.0348 0.58079,-0.009 0.90986,0.19501 0.22443,0.13868 0.42308,0.36675 0.58457,0.55031 0.42384,0.48002 0.79006,0.92934 1.21617,1.4406 0.4898,0.58746 0.96444,1.15672 1.46941,1.74388 0.66571,0.7736 1.33521,1.556 1.97665,2.35045 0.87346,1.08295 1.68929,2.16112 2.53621,3.2603 0.74305,0.96368 1.55281,1.8962 2.3641,2.80537 0.53074,0.59428 1.11987,1.28115 1.60967,1.89552 0.26083,0.32671 0.38745,0.61643 0.45265,0.83403 0.022,0.073 0.0811,0.21389 0.0531,0.37577 -0.0561,0.32421 -0.38593,0.36659 -0.5861,0.3791 -0.28508,0.0178 -0.99401,0.003 -1.36477,0.003 -1.06149,0 -2.29207,0.002 -3.33612,0 -0.24339,-3.8e-4 -0.39124,0.0291 -0.59975,-0.0563 -0.23959,-0.0982 -0.48904,-0.41861 -0.66722,-0.62613 -0.41701,-0.48472 -0.84616,-1.08386 -1.22754,-1.59224 -0.16681,-0.22329 -0.36925,-0.54485 -0.62097,-0.68026 -0.27068,-0.14573 -0.46403,-0.0773 -0.82721,-0.078 -0.30859,-5.3e-4 -0.46099,-0.0191 -0.75821,-0.0542 -0.63159,-0.0745 -1.47016,-0.0216 -2.12298,-0.0216 -2.73335,0 -5.45782,0.0758 -8.188665,0.0758 -0.97104,0 -2.67163,-0.30859 -3.55676,0.0563 -0.41656,0.17174 -0.78952,0.81614 -1.09,1.15688 -0.46956,0.53264 -1.10646,1.51566 -1.79802,1.77398 -0.57669,0.21541 -1.10994,0.12154 -1.74388,0.12154 h -1.21313 -0.68239 c -0.28092,0 -0.83744,0.003 -1.13732,-3e-4 -0.57404,-0.007 -0.8156,0.005 -0.97043,-0.32027 -0.0473,-0.0995 0.16143,-0.73296 0.39253,-1.0442 0.90947,-1.22497 2.02237,-2.25977 3.01403,-3.41195 0.74926,-0.87057 1.51149,-1.77693 2.24612,-2.65373 0.33118,-0.39533 0.63947,-0.73356 0.9837,-1.13731 0.49708,-0.58291 0.95337,-1.16021 1.43195,-1.74388 0.79104,-0.96459 1.68846,-1.93654 2.50998,-2.88119 0.56426,-0.64873 1.09129,-1.2832 1.5754,-1.97127 0.15468,-0.21988 0.26932,-0.39321 0.49428,-0.53916 0.235585,-0.15286 0.422175,-0.17235 0.605435,-0.19714 0.22307,-0.0302 0.71727,-0.022 0.98567,-0.022 0.53007,0 0.70339,-0.0162 1.13732,-0.022 m -40.336725,0.12996 c 1.7159,-0.22526 3.57639,-0.0322 5.30746,-0.0322 h 10.46328 c 1.56904,0 3.47488,-0.051 5.00418,0.13004 0.36569,0.0432 0.53416,-0.0575 0.80992,0.12154 0.2954,0.19175 0.25127,1.01858 0.25158,1.26484 4.5e-4,0.38783 -0.0146,0.51164 -0.0542,0.83403 -0.0258,0.20995 -0.014,0.78467 -0.17507,1.05027 -0.15119,0.24938 -0.41482,0.23679 -0.68057,0.23861 -0.699,0.005 -1.4243,0.0748 -2.12299,0.0759 -0.63022,9.8e-4 -1.43711,-0.0504 -2.04716,0.0216 -0.35674,0.0422 -0.51308,0.0542 -0.90985,0.0542 -0.54629,0 -0.83146,-0.0379 -1.36478,0.0129 -0.31238,0.0297 -0.46137,0.0614 -0.75821,0.0628 -0.25013,0.001 -0.40814,-2.2e-4 -0.60657,8e-5 -0.42505,6.8e-4 -0.72772,-0.0748 -1.03738,0.1963 -0.17931,0.15695 -0.17408,0.40511 -0.17567,0.63773 -0.005,0.75389 -8e-5,1.34794 -8e-5,2.12298 v 4.54926 c 0,0.34824 0.0102,0.51164 -0.0322,0.83403 -0.0754,0.57351 -0.0409,1.32247 -0.0438,1.89552 -0.002,0.41542 -0.005,1.10229 -0.19729,1.34362 -0.15497,0.19464 -0.3371,0.21351 -0.48502,0.23429 -0.1825,0.0256 -1.10964,0.0896 -1.36478,0.0902 -0.23815,4.6e-4 -0.38107,0.003 -0.60657,0.0322 -0.32026,0.0421 -0.455,0.0478 -0.83403,0.0434 -0.20145,-0.002 -0.32451,-0.0163 -0.53074,-0.0434 -0.27114,-0.0356 -0.57594,-0.0277 -0.83403,-0.0325 -0.18364,-0.003 -0.44408,0.029 -0.56085,-0.2383 -0.14603,-0.33445 -0.0217,-0.58648 -0.0586,-0.97445 -0.23072,-2.42491 -0.13875,-5.00411 -0.13875,-7.43045 0,-0.30897 8e-5,-0.46607 0,-0.75821 -8e-5,-0.27409 -10e-4,-0.44727 -0.0322,-0.68239 -0.0407,-0.31011 -0.0395,-0.66449 -0.044,-0.98567 -0.003,-0.21965 0.0113,-0.40549 -0.13178,-0.57366 -0.16878,-0.19842 -0.40647,-0.17318 -0.62613,-0.19714 -0.37038,-0.0404 -0.76321,-0.0632 -1.13731,-0.0632 -0.56942,0 -0.77497,2.3e-4 -1.4406,0 -0.32936,-1.5e-4 -0.46933,-0.006 -0.75821,-0.0437 -0.4183,-0.0549 -1.14664,-0.0322 -1.59224,-0.0322 h -0.83403 -1.13731 c -0.393963,0 -0.909546,0.005 -1.288953,-3e-4 -0.183411,-0.003 -0.348625,0.0163 -0.506636,-0.0891 -0.167109,-0.11146 -0.167564,-0.2882 -0.174312,-0.44166 -0.0097,-0.22125 -0.0011,-0.6789 -0.0014,-0.90955 -3.79e-4,-0.23944 -0.002,-0.37645 -0.03215,-0.60657 -0.03753,-0.28576 -0.05914,-0.61422 -0.03685,-0.90985 0.01456,-0.19213 0.02578,-0.35173 0.140118,-0.49784 0.168928,-0.21586 0.507469,-0.17272 0.762909,-0.19743 0.858141,-0.0831 1.794154,0.006 2.653734,-0.10661 m 116.732385,2.09084 c -0.0652,0.49382 0.0371,1.14285 -0.22822,1.41648 -0.37835,0.39003 -1.03117,0.11669 -1.7871,0.18865 -1.03268,0.0983 -2.23899,0.0629 -3.2603,0.0629 h -0.68239 -1.44059 c -0.54743,0 -1.12822,0.0695 -1.66806,0.0758 -0.18956,0.002 -0.42384,-0.008 -0.5679,0.12154 -0.19107,0.17272 -0.17742,0.36917 -0.18728,0.56085 -0.0265,0.52384 -0.0789,1.94708 -0.0789,2.57791 0,0.88172 0.0197,1.8103 -7.6e-4,2.65373 -0.0311,1.24377 -0.0751,2.57905 -0.0751,3.86687 0,0.34756 0.003,0.76556 0,1.06149 -0.003,0.24861 0.0212,0.8272 -0.38366,0.96838 -0.22594,0.0789 -0.37834,0.0803 -0.60202,0.0902 -0.40715,0.0178 -0.93866,-0.0208 -1.36477,0.0351 -0.45114,0.0592 -0.61491,0.0437 -1.13732,0.0437 -0.33891,0 -1.05997,-0.056 -1.36477,-0.0789 -0.16226,-0.0122 -0.32906,-0.0152 -0.46554,-0.18152 -0.17287,-0.21093 -0.13951,-0.46387 -0.14103,-0.7253 -0.003,-0.66639 0,-1.4459 0,-2.12299 0,-1.71431 -0.0758,-3.43597 -0.0758,-5.15582 0,-0.52991 0.019,-0.8128 -0.044,-1.28895 -0.0447,-0.34142 -0.0318,-0.46198 -0.0318,-0.75821 0,-0.28205 0.0758,-1.1361 -0.26992,-1.47176 -0.34196,-0.33202 -0.89166,-0.16097 -1.39814,-0.20919 -0.8636,-0.0822 -1.79316,-0.0629 -2.65373,-0.0629 h -0.83403 c -0.83024,0 -1.81591,0.0447 -2.65373,-0.0542 -0.49815,-0.0588 -1.41103,0.19053 -1.78104,-0.14315 -0.17818,-0.16097 -0.17666,-0.41277 -0.19182,-0.63667 -0.0341,-0.48397 -0.003,-1.49868 0.002,-1.89552 0.002,-0.17454 -0.006,-0.51581 0.19031,-0.7087 0.30253,-0.29631 0.62704,-0.19585 1.09865,-0.20146 0.26461,-0.003 0.64523,-0.0712 0.98567,-0.0752 1.51566,-0.018 3.03284,-3.1e-4 4.54925,-3.1e-4 0.39427,0 0.9091,6.1e-4 1.28896,0 0.32755,-5.3e-4 0.47085,-0.0284 0.83403,-0.0629 1.6021,-0.15247 3.32247,-0.0205 4.92836,-0.0128 0.36849,0.002 0.55046,0.0606 0.90985,0.0291 1.97134,-0.17249 4.21943,-0.0292 6.21731,-0.0292 1.15172,0 2.33908,-0.0134 3.48776,3.1e-4 0.23732,0.003 0.82846,0.056 0.94219,0.0673 0.0911,0.60732 0.004,1.51446 -0.0646,2.0554 z m -52.81488,-2.01496 c 0.54515,-0.0715 1.25635,-0.0322 1.8197,-0.0322 h 3.71522 c 3.37328,0 6.79735,-0.16119 10.16,0.069 0.90606,0.0621 1.91069,-0.0771 2.80538,0.0284 0.43066,0.0509 0.74228,0.0828 1.21313,0.15058 0.53909,0.0777 0.97203,0.1731 1.4406,0.43757 0.50117,0.28289 1.03571,0.71552 1.43756,1.1342 0.49587,0.51589 1.00539,1.17272 1.27986,1.81963 0.17818,0.41883 0.24414,0.8457 0.23808,1.28895 -0.0152,1.19244 -0.4246,2.50133 -1.30943,3.37972 -0.31617,0.31375 -0.66647,0.59201 -1.0395,0.83926 -0.20624,0.13709 -0.45948,0.2722 -0.68239,0.3876 -0.27751,0.14353 -0.54819,0.259 -0.62249,0.55038 -0.0629,0.24399 0.0326,0.41345 0.11449,0.68125 0.13268,0.43559 0.52165,0.96808 0.78626,1.36478 0.16226,0.24346 0.29873,0.44446 0.45417,0.68239 0.14482,0.22246 0.24869,0.40063 0.38138,0.60656 0.27068,0.42035 0.62779,0.87634 0.87952,1.28896 0.0925,0.15194 0.27675,0.5635 0.22215,0.75373 -0.0804,0.28357 -0.22822,0.27933 -0.4716,0.30359 -0.21988,0.0219 -0.77717,0.0786 -1.06149,0.0799 -0.94777,0.005 -2.27766,0.004 -3.18448,0 -0.31466,-0.002 -0.81735,0.0406 -1.13732,-0.13428 -0.31238,-0.17128 -0.42611,-0.38229 -0.63386,-0.69968 -0.15316,-0.23231 -0.29115,-0.44598 -0.45341,-0.68239 -0.5679,-0.82728 -1.13883,-1.62916 -1.69687,-2.42626 -0.34347,-0.49094 -0.44962,-0.81652 -0.878,-1.18023 -0.4064,-0.34491 -1.24878,-0.26037 -1.9486,-0.26037 -1.41861,0 -2.90546,0.0758 -4.32179,0.0758 h -1.28896 c -0.69831,0 -1.98802,0.0623 -2.57791,0.077 -0.17894,0.004 -0.84995,0.0641 -0.9834,0.25923 -0.2358,0.34263 -0.10994,0.55615 -0.14709,1.10441 -0.0576,0.83789 -0.007,1.82736 -0.007,2.65373 0,0.26416 0.044,0.52096 -0.0781,0.75707 -0.15543,0.30086 -0.32982,0.36879 -0.52847,0.42316 -0.18273,0.05 -0.52241,0.0329 -0.75821,0.0329 -0.24035,0 -0.45568,0.009 -0.68239,-0.007 -0.39123,-0.0268 -0.70816,-0.069 -1.13731,-0.069 -0.30177,0 -0.49966,0.004 -0.83403,-3e-4 -0.58003,-0.007 -1.24043,7e-5 -1.55964,-0.28236 -0.13572,-0.1204 -0.18424,-0.89378 -0.18424,-1.23376 v -4.17015 c 0,-1.49473 0.0758,-2.98226 0.0758,-4.47343 v -2.04716 -0.68239 c 0,-0.66055 0.0652,-1.2195 0.0758,-1.8197 0.004,-0.25317 -0.0531,-0.62727 0.15088,-0.86413 0.19714,-0.2286 0.49815,-0.12154 0.83479,-0.12154 0.42687,0 1.03041,6.8e-4 1.4406,0 0.26537,-4.6e-4 0.41095,-0.008 0.68239,-0.0437 m -22.67045,3.76436 c 0.24354,-0.10653 0.40033,0.008 0.52999,0.10327 0.20092,0.14845 0.38592,0.39063 0.60126,0.64948 0.3283,0.3951 0.60126,0.75783 0.92577,1.13731 0.4989,0.58253 0.98188,1.03132 1.40344,1.66806 0.16833,0.25423 0.30101,0.4199 0.2813,0.68095 -0.0212,0.28243 -0.24566,0.33399 -0.33134,0.35643 -0.3048,0.08 -1.05467,0.0999 -1.59072,0.0999 -1.46198,7e-5 -3.29199,0.0193 -4.7009,-3.1e-4 -0.34149,-0.005 -0.60967,0.0274 -0.676935,-0.31124 -0.045,-0.22618 0.149755,-0.53075 0.319825,-0.74995 0.51535,-0.66404 1.17037,-1.34074 1.709,-1.97134 0.30715,-0.35954 0.60134,-0.81235 0.92304,-1.13731 0.15847,-0.16006 0.37835,-0.42559 0.60627,-0.52529 m 25.85493,0.10289 c 0.53984,-0.0811 1.37387,-0.0325 1.89552,-0.0325 h 0.90985 c 2.23823,0 4.67663,-0.19865 6.8997,0.0129 0.37076,0.0353 0.55956,0.0628 0.90985,0.0629 0.25476,8e-5 0.39958,0 0.60657,0 0.23883,0 0.5732,-4.5e-4 0.83403,0 0.56714,9.1e-4 1.27986,0.0499 1.8197,0.185 0.37986,0.0952 0.70286,0.30116 0.90303,0.64933 0.26689,0.46494 0.0652,0.92828 -0.37228,1.23945 -0.70059,0.49776 -1.66503,0.50064 -2.42627,0.59171 -0.30935,0.0371 -0.54667,0.0639 -0.90985,0.0641 -0.29267,1.6e-4 -0.46706,-0.006 -0.75821,0.0322 -0.3139,0.0412 -0.4989,0.0437 -0.83403,0.0437 -0.78172,8e-5 -1.20101,-0.0159 -1.89552,10e-4 -0.4936,0.0121 -0.63159,0.074 -1.0615,0.0747 -0.41701,6.8e-4 -1.0069,0 -1.44059,0 h -0.90986 -1.21313 c -0.7893,0 -1.89931,0.0174 -2.65373,-0.001 -0.30708,-0.008 -0.51558,0.002 -0.73698,-0.1496 -0.29949,-0.20532 -0.29949,-0.65213 -0.31769,-0.91076 -0.0371,-0.52453 -0.0455,-0.80559 0.044,-1.21313 0.10311,-0.47115 0.19182,-0.57237 0.70741,-0.64986"
       id="path363" />
  </g>
</svg>